<?xml version="1.0" encoding="utf-8"?>
<!-- Generator: Adobe Illustrator 23.0.3, SVG Export Plug-In . SVG Version: 6.00 Build 0)  -->
<svg version="1.1" id="Layer_1" xmlns="http://www.w3.org/2000/svg" xmlns:xlink="http://www.w3.org/1999/xlink" x="0px" y="0px"
	 viewBox="0 0 108.3 94.6" style="enable-background:new 0 0 108.3 94.6;" xml:space="preserve">
<style type="text/css">
	.st0{fill:#FFFFFF;}
	.st1{enable-background:new    ;}
</style>
<g>
	<g id="Link_x5F_1_2_">
		<g>
			<path class="st0" d="M62.1,21.7c-0.2-1.5-1.6-2.5-3.2-2.3c-1.5,0.2-2.5,1.7-2.3,3.2c0.2,1.1,0.3,2.2,0.3,3.4
				c0,11.4-9.2,20.6-20.6,20.6S15.7,37.4,15.7,26S25,5.4,36.3,5.4c3.2,0,6.3,0.7,9.2,2.2c1.4,0.7,3,0.1,3.7-1.2
				c0.7-1.4,0.1-3-1.2-3.7C44.4,0.9,40.4,0,36.3,0C22-0.1,10.2,11.6,10.2,26S22,52.1,36.3,52.1S62.4,40.4,62.4,26
				C62.4,24.6,62.3,23.1,62.1,21.7z"/>
		</g>
	</g>
	<g id="Link_x5F_1_1_">
		<g>
			<path class="st0" d="M72.1-0.1C57.7-0.1,46,11.6,46,26c0,1.4,0.1,2.8,0.3,4.2c0.2,1.5,1.6,2.5,3.2,2.3c1.5-0.2,2.5-1.7,2.3-3.1
				c-0.2-1.1-0.3-2.2-0.3-3.3c0-11.4,9.2-20.6,20.6-20.6s20.6,9.2,20.6,20.6s-9.2,20.6-20.6,20.6c-3.2,0-6.3-0.7-9.2-2.2
				c-1.4-0.7-3-0.1-3.7,1.2c-0.7,1.4-0.1,3,1.2,3.7c3.6,1.8,7.6,2.7,11.7,2.7c14.4,0,26.1-11.7,26.1-26.1
				C98.1,11.6,86.4-0.1,72.1-0.1z"/>
		</g>
	</g>
</g>
<g class="st1">
	<path class="st0" d="M0,88.4h2.9C3.1,90.6,4.3,92,7.3,92c2.8,0,4.1-1,4.1-3s-1.5-2.6-4.3-3.1c-4.8-0.9-6.5-2.2-6.5-5.5
		c0-3.5,3.4-5.2,6.3-5.2c3.3,0,6.2,1.4,6.7,5.4h-2.9c-0.4-2-1.6-2.9-3.9-2.9c-2.1,0-3.5,1.1-3.5,2.7c0,1.7,0.9,2.3,4.3,3
		c3.8,0.7,6.5,1.6,6.5,5.5c0,3.4-2.3,5.7-6.8,5.7C2.9,94.5,0.2,92.2,0,88.4z"/>
	<path class="st0" d="M17.3,85v-0.3c0-5.6,3.9-9.5,9.1-9.5c5.3,0,9.1,3.9,9.1,9.5V85c0,5.6-3.9,9.5-9.2,9.5S17.3,90.4,17.3,85z
		 M32.5,85v-0.2c0-4.3-2.4-7.1-6.1-7.1s-6.1,2.8-6.1,7V85c0,4.2,2.3,7,6.1,7C30.1,92,32.5,89.2,32.5,85z"/>
	<path class="st0" d="M40.2,66.6h3v27.5h-3V66.6z"/>
	<path class="st0" d="M47.9,85v-0.3c0-5.6,3.9-9.5,9.1-9.5s9.1,3.9,9.1,9.5V85c0,5.6-3.9,9.5-9.2,9.5C51.7,94.5,47.9,90.4,47.9,85z
		 M63.1,85v-0.2c0-4.3-2.4-7.1-6.1-7.1c-3.7,0-6.1,2.8-6.1,7V85c0,4.2,2.3,7,6.1,7C60.7,92,63.1,89.2,63.1,85z"/>
	<path class="st0" d="M69.6,92c0-1.3,1-2.3,2.3-2.3s2.3,1,2.3,2.3s-1,2.3-2.3,2.3S69.6,93.3,69.6,92z"/>
	<path class="st0" d="M79.5,89.5V78h-2.7v-2.5h2.7v-4.2h3v4.2h4.3V78h-4.3v11.2c0,1.8,0.8,2.7,2.3,2.7c0.9,0,1.6-0.1,2.3-0.4V94
		c-0.6,0.2-1.3,0.4-2.5,0.4C81.1,94.4,79.5,92.4,79.5,89.5z"/>
	<path class="st0" d="M90.1,85v-0.3c0-5.6,3.9-9.5,9.1-9.5c5.3,0,9.1,3.9,9.1,9.5V85c0,5.6-3.9,9.5-9.2,9.5S90.1,90.4,90.1,85z
		 M105.3,85v-0.2c0-4.3-2.4-7.1-6.1-7.1s-6.1,2.8-6.1,7V85c0,4.2,2.3,7,6.1,7C102.9,92,105.3,89.2,105.3,85z"/>
</g>
</svg>
